<mxfile host="65bd71144e">
    <diagram id="O-7cJ8llPcHw7L62qQBe" name="Page-1">
        <mxGraphModel dx="1509" dy="573" grid="1" gridSize="10" guides="1" tooltips="1" connect="1" arrows="1" fold="1" page="1" pageScale="1" pageWidth="827" pageHeight="1169" math="0" shadow="0">
            <root>
                <mxCell id="0"/>
                <mxCell id="1" parent="0"/>
                <mxCell id="2" value="ADC Data Source" style="swimlane;fontStyle=0;childLayout=stackLayout;horizontal=1;startSize=20;fillColor=#ffffff;horizontalStack=0;resizeParent=1;resizeParentMax=0;resizeLast=0;collapsible=0;marginBottom=0;swimlaneFillColor=#ffffff;" parent="1" vertex="1">
                    <mxGeometry x="30" y="100" width="140" height="50" as="geometry"/>
                </mxCell>
                <mxCell id="3" value="I2C Data Source" style="swimlane;fontStyle=0;childLayout=stackLayout;horizontal=1;startSize=20;fillColor=#ffffff;horizontalStack=0;resizeParent=1;resizeParentMax=0;resizeLast=0;collapsible=0;marginBottom=0;swimlaneFillColor=#ffffff;" parent="1" vertex="1">
                    <mxGeometry x="30" y="160" width="140" height="50" as="geometry"/>
                </mxCell>
                <mxCell id="4" value="SPI Data Source" style="swimlane;fontStyle=0;childLayout=stackLayout;horizontal=1;startSize=20;fillColor=#ffffff;horizontalStack=0;resizeParent=1;resizeParentMax=0;resizeLast=0;collapsible=0;marginBottom=0;swimlaneFillColor=#ffffff;" parent="1" vertex="1">
                    <mxGeometry x="30" y="220" width="140" height="50" as="geometry"/>
                </mxCell>
                <mxCell id="18" value="Measurement" style="swimlane;fontStyle=1;childLayout=stackLayout;horizontal=1;startSize=20;fillColor=#ffffff;horizontalStack=0;resizeParent=1;resizeParentMax=0;resizeLast=0;collapsible=0;marginBottom=0;swimlaneFillColor=#ffffff;" parent="1" vertex="1">
                    <mxGeometry x="270" y="70" width="200" height="80" as="geometry"/>
                </mxCell>
                <mxCell id="21" value=".Filter = 0x02000226" style="html=1;dashed=0;whitespace=wrap;shape=partialRectangle;right=0;left=0;" parent="18" vertex="1">
                    <mxGeometry y="20" width="200" height="30" as="geometry"/>
                </mxCell>
                <mxCell id="33" value=".Source = 01" style="html=1;dashed=0;whitespace=wrap;shape=partialRectangle;right=0;" parent="18" vertex="1">
                    <mxGeometry y="50" width="200" height="30" as="geometry"/>
                </mxCell>
                <mxCell id="22" value="Sample Pool" style="swimlane;fontStyle=1;childLayout=stackLayout;horizontal=1;startSize=20;fillColor=#ffffff;horizontalStack=0;resizeParent=1;resizeParentMax=0;resizeLast=0;collapsible=0;marginBottom=0;swimlaneFillColor=#ffffff;" parent="1" vertex="1">
                    <mxGeometry x="229" y="210" width="280" height="160" as="geometry"/>
                </mxCell>
                <mxCell id="23" value="FIFO" style="swimlane;fontStyle=0;childLayout=stackLayout;horizontal=1;startSize=20;fillColor=#ffffff;horizontalStack=0;resizeParent=1;resizeParentMax=0;resizeLast=0;collapsible=0;marginBottom=0;swimlaneFillColor=#ffffff;" parent="1" vertex="1">
                    <mxGeometry x="369" y="245" width="130" height="110" as="geometry"/>
                </mxCell>
                <mxCell id="27" value="1&amp;nbsp; &amp;nbsp; &amp;nbsp; &amp;nbsp;Measurement" style="html=1;dashed=0;whitespace=wrap;shape=mxgraph.dfd.dataStoreID;align=left;spacingLeft=3;points=[[0,0],[0.5,0],[1,0],[0,0.5],[1,0.5],[0,1],[0.5,1],[1,1]];" parent="23" vertex="1">
                    <mxGeometry y="20" width="130" height="30" as="geometry"/>
                </mxCell>
                <mxCell id="28" value="2&amp;nbsp; &amp;nbsp; &amp;nbsp; &amp;nbsp;Measurement" style="html=1;dashed=0;whitespace=wrap;shape=mxgraph.dfd.dataStoreID;align=left;spacingLeft=3;points=[[0,0],[0.5,0],[1,0],[0,0.5],[1,0.5],[0,1],[0.5,1],[1,1]];" parent="23" vertex="1">
                    <mxGeometry y="50" width="130" height="30" as="geometry"/>
                </mxCell>
                <mxCell id="26" value="3&amp;nbsp; &amp;nbsp; &amp;nbsp; &amp;nbsp;Measurement" style="html=1;dashed=0;whitespace=wrap;shape=mxgraph.dfd.dataStoreID;align=left;spacingLeft=3;points=[[0,0],[0.5,0],[1,0],[0,0.5],[1,0.5],[0,1],[0.5,1],[1,1]];" parent="23" vertex="1">
                    <mxGeometry y="80" width="130" height="30" as="geometry"/>
                </mxCell>
                <mxCell id="24" value="Heap Memory" style="html=1;dashed=0;whitespace=wrap;" parent="1" vertex="1">
                    <mxGeometry x="259" y="245" width="100" height="50" as="geometry"/>
                </mxCell>
                <mxCell id="25" value="MUTEX" style="html=1;dashed=0;whitespace=wrap;direction=west;horizontal=0;" parent="1" vertex="1">
                    <mxGeometry x="239" y="245" width="20" height="50" as="geometry"/>
                </mxCell>
                <mxCell id="34" value="3. Add to FIFO" style="endArrow=classic;html=1;exitX=0.5;exitY=1;exitDx=0;exitDy=0;entryX=0.5;entryY=0;entryDx=0;entryDy=0;" parent="1" source="33" target="22" edge="1">
                    <mxGeometry width="50" height="50" relative="1" as="geometry">
                        <mxPoint x="370" y="420" as="sourcePoint"/>
                        <mxPoint x="400" y="390" as="targetPoint"/>
                    </mxGeometry>
                </mxCell>
                <mxCell id="38" value="Processor Node Manager" style="swimlane;fontStyle=1;childLayout=stackLayout;horizontal=1;startSize=20;fillColor=#ffffff;horizontalStack=0;resizeParent=1;resizeParentMax=0;resizeLast=0;collapsible=0;marginBottom=0;swimlaneFillColor=#ffffff;" parent="1" vertex="1">
                    <mxGeometry x="229" y="440" width="280" height="190" as="geometry"/>
                </mxCell>
                <mxCell id="39" value="" style="endArrow=classic;html=1;exitX=0.5;exitY=0;exitDx=0;exitDy=0;entryX=0.5;entryY=1;entryDx=0;entryDy=0;" parent="1" source="38" target="22" edge="1">
                    <mxGeometry width="50" height="50" relative="1" as="geometry">
                        <mxPoint x="329" y="250" as="sourcePoint"/>
                        <mxPoint x="379" y="200" as="targetPoint"/>
                    </mxGeometry>
                </mxCell>
                <mxCell id="40" value="4.Retrieve from FIFO" style="edgeLabel;html=1;align=center;verticalAlign=middle;resizable=0;points=[];" parent="39" vertex="1" connectable="0">
                    <mxGeometry x="-0.1876" relative="1" as="geometry">
                        <mxPoint as="offset"/>
                    </mxGeometry>
                </mxCell>
                <mxCell id="42" value="Test Processor Chain" style="swimlane;fontStyle=1;childLayout=stackLayout;horizontal=1;startSize=20;fillColor=#ffffff;horizontalStack=0;resizeParent=1;resizeParentMax=0;resizeLast=0;collapsible=0;marginBottom=0;swimlaneFillColor=#ffffff;" parent="1" vertex="1">
                    <mxGeometry x="294" y="690" width="150" height="230" as="geometry"/>
                </mxCell>
                <mxCell id="43" value="00&amp;nbsp; &amp;nbsp; &amp;nbsp;Normalise Data" style="html=1;dashed=0;whitespace=wrap;shape=mxgraph.dfd.dataStoreID;align=left;spacingLeft=3;points=[[0,0],[0.5,0],[1,0],[0,0.5],[1,0.5],[0,1],[0.5,1],[1,1]];" parent="42" vertex="1">
                    <mxGeometry y="20" width="150" height="30" as="geometry"/>
                </mxCell>
                <mxCell id="44" value="01&amp;nbsp; &amp;nbsp; &amp;nbsp;Hash (SHA256)" style="html=1;dashed=0;whitespace=wrap;shape=mxgraph.dfd.dataStoreID;align=left;spacingLeft=3;points=[[0,0],[0.5,0],[1,0],[0,0.5],[1,0.5],[0,1],[0.5,1],[1,1]];" parent="42" vertex="1">
                    <mxGeometry y="50" width="150" height="30" as="geometry"/>
                </mxCell>
                <mxCell id="45" value="03&amp;nbsp; &amp;nbsp; &amp;nbsp;Sign (P-256)" style="html=1;dashed=0;whitespace=wrap;shape=mxgraph.dfd.dataStoreID;align=left;spacingLeft=3;points=[[0,0],[0.5,0],[1,0],[0,0.5],[1,0.5],[0,1],[0.5,1],[1,1]];" parent="42" vertex="1">
                    <mxGeometry y="80" width="150" height="30" as="geometry"/>
                </mxCell>
                <mxCell id="46" value="04&amp;nbsp; &amp;nbsp; &amp;nbsp;Encrypt" style="html=1;dashed=0;whitespace=wrap;shape=mxgraph.dfd.dataStoreID;align=left;spacingLeft=3;points=[[0,0],[0.5,0],[1,0],[0,0.5],[1,0.5],[0,1],[0.5,1],[1,1]];" parent="42" vertex="1">
                    <mxGeometry y="110" width="150" height="30" as="geometry"/>
                </mxCell>
                <mxCell id="47" value="05&amp;nbsp; &amp;nbsp; &amp;nbsp;Compress (LZ4)" style="html=1;dashed=0;whitespace=wrap;shape=mxgraph.dfd.dataStoreID;align=left;spacingLeft=3;points=[[0,0],[0.5,0],[1,0],[0,0.5],[1,0.5],[0,1],[0.5,1],[1,1]];" parent="42" vertex="1">
                    <mxGeometry y="140" width="150" height="30" as="geometry"/>
                </mxCell>
                <mxCell id="48" value="06&amp;nbsp; &amp;nbsp; &amp;nbsp;Encode (BASE64)" style="html=1;dashed=0;whitespace=wrap;shape=mxgraph.dfd.dataStoreID;align=left;spacingLeft=3;points=[[0,0],[0.5,0],[1,0],[0,0.5],[1,0.5],[0,1],[0.5,1],[1,1]];" parent="42" vertex="1">
                    <mxGeometry y="170" width="150" height="30" as="geometry"/>
                </mxCell>
                <mxCell id="50" value=".filter = 0x02000226" style="html=1;dashed=0;whitespace=wrap;shape=partialRectangle;right=0;" parent="42" vertex="1">
                    <mxGeometry y="200" width="150" height="30" as="geometry"/>
                </mxCell>
                <mxCell id="49" value="Registry (Linked List)" style="swimlane;fontStyle=0;childLayout=stackLayout;horizontal=1;startSize=20;fillColor=#ffffff;horizontalStack=0;resizeParent=1;resizeParentMax=0;resizeLast=0;collapsible=0;marginBottom=0;swimlaneFillColor=#ffffff;" parent="1" vertex="1">
                    <mxGeometry x="239" y="510" width="260" height="110" as="geometry"/>
                </mxCell>
                <mxCell id="53" value="00&amp;nbsp; &amp;nbsp; &amp;nbsp;Test Processor Chain" style="html=1;dashed=0;whitespace=wrap;shape=mxgraph.dfd.dataStoreID;align=left;spacingLeft=3;points=[[0,0],[0.5,0],[1,0],[0,0.5],[1,0.5],[0,1],[0.5,1],[1,1]];" parent="49" vertex="1">
                    <mxGeometry y="20" width="260" height="30" as="geometry"/>
                </mxCell>
                <mxCell id="59" value="01&amp;nbsp; &amp;nbsp; &amp;nbsp;Other Processor Node" style="html=1;dashed=0;whitespace=wrap;shape=mxgraph.dfd.dataStoreID;align=left;spacingLeft=3;points=[[0,0],[0.5,0],[1,0],[0,0.5],[1,0.5],[0,1],[0.5,1],[1,1]];" parent="49" vertex="1">
                    <mxGeometry y="50" width="260" height="30" as="geometry"/>
                </mxCell>
                <mxCell id="60" value="02&amp;nbsp; &amp;nbsp; &amp;nbsp;Other Processor Node" style="html=1;dashed=0;whitespace=wrap;shape=mxgraph.dfd.dataStoreID;align=left;spacingLeft=3;points=[[0,0],[0.5,0],[1,0],[0,0.5],[1,0.5],[0,1],[0.5,1],[1,1]];" parent="49" vertex="1">
                    <mxGeometry y="80" width="260" height="30" as="geometry"/>
                </mxCell>
                <mxCell id="54" value="Filter Engine" style="html=1;dashed=0;whitespace=wrap;" parent="1" vertex="1">
                    <mxGeometry x="239" y="470" width="120" height="30" as="geometry"/>
                </mxCell>
                <mxCell id="57" value="&lt;h1&gt;Sample Pool&lt;/h1&gt;&lt;p&gt;Manages memory allocation and queueing for measurement values, reducing the number of memcpy operations.&lt;/p&gt;" style="text;html=1;strokeColor=none;fillColor=none;spacing=5;spacingTop=-20;whiteSpace=wrap;overflow=hidden;rounded=0;align=center;" parent="1" vertex="1">
                    <mxGeometry x="529" y="230" width="270" height="120" as="geometry"/>
                </mxCell>
                <mxCell id="58" value="&lt;h1&gt;Processor Node Manager&lt;/h1&gt;&lt;p&gt;Processor nodes (or node chains) are registered with specific 'filter' values, indicating what measurement types the node should be used for.&lt;/p&gt;&lt;p&gt;If the filter engine finds a match between an incoming measurement and a registered processor node, the node will be executed with the matching measurement.&lt;/p&gt;" style="text;html=1;strokeColor=none;fillColor=none;spacing=5;spacingTop=-20;whiteSpace=wrap;overflow=hidden;rounded=0;align=center;" parent="1" vertex="1">
                    <mxGeometry x="529" y="420" width="270" height="220" as="geometry"/>
                </mxCell>
                <mxCell id="61" value="FIFO Check" style="html=1;dashed=0;whitespace=wrap;align=center;" parent="1" vertex="1">
                    <mxGeometry x="379" y="470" width="120" height="30" as="geometry"/>
                </mxCell>
                <mxCell id="62" value="&lt;h1&gt;Nodes and&lt;br&gt;Node Chains&lt;/h1&gt;&lt;p&gt;Processors nodes (or node chains) encapsulate specific logic and act upon incoming measurements.&lt;/p&gt;&lt;p&gt;Changes made to the measurement are propogated through the pipeline, allowing cumulative processsing results.&lt;/p&gt;&lt;p&gt;Priority levels can be assigned to nodes or node chains when inserting them in the processor regisry to ensure they are executed in the expected order.&lt;/p&gt;" style="text;html=1;strokeColor=none;fillColor=none;spacing=5;spacingTop=-20;whiteSpace=wrap;overflow=hidden;rounded=0;align=center;" parent="1" vertex="1">
                    <mxGeometry x="560" y="680" width="200" height="300" as="geometry"/>
                </mxCell>
                <mxCell id="73" value="Driver(s)" style="swimlane;" vertex="1" parent="1">
                    <mxGeometry x="20" y="70" width="160" height="210" as="geometry"/>
                </mxCell>
                <mxCell id="78" value="2.Populate" style="endArrow=classic;html=1;entryX=0;entryY=0;entryDx=0;entryDy=0;" edge="1" parent="1" target="33">
                    <mxGeometry width="50" height="50" relative="1" as="geometry">
                        <mxPoint x="180" y="120" as="sourcePoint"/>
                        <mxPoint x="440" y="240" as="targetPoint"/>
                    </mxGeometry>
                </mxCell>
                <mxCell id="79" value="&lt;h1&gt;Measurement&lt;/h1&gt;&lt;p&gt;All measurements use a standard format describing their SI unit, scale, C type, and essential meta-data required to process and interpret them later in the pipeline.&lt;/p&gt;" style="text;html=1;strokeColor=none;fillColor=none;spacing=5;spacingTop=-20;whiteSpace=wrap;overflow=hidden;rounded=0;align=center;" vertex="1" parent="1">
                    <mxGeometry x="529" y="50" width="270" height="120" as="geometry"/>
                </mxCell>
                <mxCell id="81" value="1.Request&lt;br&gt;measurement&lt;br&gt;from heap" style="endArrow=classic;html=1;exitX=0.5;exitY=1;exitDx=0;exitDy=0;" edge="1" parent="1" source="73">
                    <mxGeometry x="0.1765" width="50" height="50" relative="1" as="geometry">
                        <mxPoint x="390" y="310" as="sourcePoint"/>
                        <mxPoint x="230" y="320" as="targetPoint"/>
                        <Array as="points">
                            <mxPoint x="100" y="320"/>
                        </Array>
                        <mxPoint as="offset"/>
                    </mxGeometry>
                </mxCell>
                <mxCell id="82" value="" style="endArrow=classic;html=1;entryX=0.5;entryY=0;entryDx=0;entryDy=0;exitX=0.5;exitY=1;exitDx=0;exitDy=0;" edge="1" parent="1" source="38" target="42">
                    <mxGeometry width="50" height="50" relative="1" as="geometry">
                        <mxPoint x="275" y="630" as="sourcePoint"/>
                        <mxPoint x="440" y="640" as="targetPoint"/>
                    </mxGeometry>
                </mxCell>
                <mxCell id="83" value="5.Send to matching processor nodes" style="edgeLabel;html=1;align=center;verticalAlign=middle;resizable=0;points=[];" vertex="1" connectable="0" parent="82">
                    <mxGeometry x="-0.1" y="2" relative="1" as="geometry">
                        <mxPoint as="offset"/>
                    </mxGeometry>
                </mxCell>
                <mxCell id="84" value="Other Processor Node(s)" style="swimlane;fontStyle=1;childLayout=stackLayout;horizontal=1;startSize=20;fillColor=#ffffff;horizontalStack=0;resizeParent=1;resizeParentMax=0;resizeLast=0;collapsible=0;marginBottom=0;swimlaneFillColor=#ffffff;" vertex="1" parent="1">
                    <mxGeometry x="294" y="940" width="150" height="80" as="geometry"/>
                </mxCell>
                <mxCell id="85" value="00&amp;nbsp; &amp;nbsp; &amp;nbsp;Transmit via BLE" style="html=1;dashed=0;whitespace=wrap;shape=mxgraph.dfd.dataStoreID;align=left;spacingLeft=3;points=[[0,0],[0.5,0],[1,0],[0,0.5],[1,0.5],[0,1],[0.5,1],[1,1]];" vertex="1" parent="84">
                    <mxGeometry y="20" width="150" height="30" as="geometry"/>
                </mxCell>
                <mxCell id="91" value=".filter = 0x02000226" style="html=1;dashed=0;whitespace=wrap;shape=partialRectangle;right=0;" vertex="1" parent="84">
                    <mxGeometry y="50" width="150" height="30" as="geometry"/>
                </mxCell>
                <mxCell id="95" value="" style="endArrow=classic;html=1;exitX=0.5;exitY=1;exitDx=0;exitDy=0;entryX=0.5;entryY=0;entryDx=0;entryDy=0;" edge="1" parent="1" source="50" target="84">
                    <mxGeometry width="50" height="50" relative="1" as="geometry">
                        <mxPoint x="390" y="890" as="sourcePoint"/>
                        <mxPoint x="440" y="840" as="targetPoint"/>
                    </mxGeometry>
                </mxCell>
            </root>
        </mxGraphModel>
    </diagram>
</mxfile>